<svg width="1168" height="549" xmlns="http://www.w3.org/2000/svg" xmlns:xlink="http://www.w3.org/1999/xlink" xml:space="preserve" overflow="hidden"><g transform="translate(-41 -43)"><path d="M1301.03 408.371 1329.23 408.371 1329.23 632.965 1301.03 632.965Z" fill="#009EE3" transform="matrix(1.00217 0 0 1 -134.761 -92.7788)"/><path d="M755.614 445.836 755.614 409.16 760.149 409.16 760.149 445.836 755.614 445.836Z" fill="#FFFFFF" transform="matrix(1.00217 0 0 1 -134.761 -92.7788)"/><path d="M801.953 409.16 806.488 409.16 806.488 445.836 802.544 445.836 780.854 417.244 780.854 445.836 776.319 445.836 776.319 409.16 780.262 409.16 801.953 437.751 801.953 409.16Z" fill="#FFFFFF" transform="matrix(1.00217 0 0 1 -134.761 -92.7788)"/><path d="M820.685 435.385 825.023 434.005C826.206 438.54 830.347 442.287 836.657 442.287 842.376 442.287 845.925 439.132 845.925 435.78 845.925 433.019 844.15 431.639 839.615 429.864L830.939 426.906C826.206 425.329 822.854 422.765 822.854 418.23 822.854 412.906 827.981 408.174 835.868 408.174 843.362 408.174 848.291 412.117 849.869 417.047L845.531 418.427C844.347 414.681 840.601 412.314 835.474 412.314 830.347 412.314 827.39 414.878 827.39 417.836 827.39 420.202 828.77 421.385 832.911 422.765L841.193 425.526C846.911 427.498 850.657 429.864 850.657 434.991 850.657 441.301 844.939 446.23 836.46 446.23 827.784 446.428 822.065 441.301 820.685 435.385Z" fill="#FFFFFF" transform="matrix(1.00217 0 0 1 -134.761 -92.7788)"/><path d="M891.08 413.3 877.672 413.3 877.672 445.836 873.136 445.836 873.136 413.3 859.728 413.3 859.728 409.16 891.08 409.16 891.08 413.3Z" fill="#FFFFFF" transform="matrix(1.00217 0 0 1 -134.761 -92.7788)"/><path d="M904.095 445.836 904.095 409.16 908.63 409.16 908.63 445.836 904.095 445.836Z" fill="#FFFFFF" transform="matrix(1.00217 0 0 1 -134.761 -92.7788)"/><path d="M952.997 413.3 939.588 413.3 939.588 445.836 935.053 445.836 935.053 413.3 921.644 413.3 921.644 409.16 952.997 409.16 952.997 413.3 952.997 413.3Z" fill="#FFFFFF" transform="matrix(1.00217 0 0 1 -134.761 -92.7788)"/><path d="M991.448 409.16 995.983 409.16 995.983 431.244C995.983 440.315 990.462 446.625 980.8 446.625 971.138 446.625 965.616 440.512 965.616 431.244L965.616 409.16 970.349 409.16 970.349 431.047C970.349 437.554 973.898 442.287 980.8 442.287 987.701 442.287 991.448 437.751 991.448 431.047L991.448 409.16 991.448 409.16Z" fill="#FFFFFF" transform="matrix(1.00217 0 0 1 -134.761 -92.7788)"/><path d="M1039.96 413.3 1026.55 413.3 1026.55 445.836 1022.01 445.836 1022.01 413.3 1008.6 413.3 1008.6 409.16 1039.96 409.16 1039.96 413.3 1039.96 413.3Z" fill="#FFFFFF" transform="matrix(1.00217 0 0 1 -134.761 -92.7788)"/><path d="M1079 413.3 1057.5 413.3 1057.5 425.132 1076.24 425.132 1076.24 429.075 1057.5 429.075 1057.5 441.498 1079 441.498 1079 445.639 1053.17 445.639 1053.17 408.962 1079.2 408.962 1079.2 413.3 1079 413.3Z" fill="#FFFFFF" transform="matrix(1.00217 0 0 1 -134.761 -92.7788)"/><path d="M1141.7 413.3 1120.8 413.3 1120.8 425.723 1139.14 425.723 1139.14 429.864 1120.8 429.864 1120.8 445.836 1116.07 445.836 1116.07 409.16 1141.7 409.16 1141.7 413.3Z" fill="#FFFFFF" transform="matrix(1.00217 0 0 1 -134.761 -92.7788)"/><path d="M1152.55 427.498C1152.55 416.653 1160.63 408.568 1171.48 408.568 1182.32 408.568 1190.41 416.85 1190.41 427.498 1190.41 438.343 1182.32 446.625 1171.48 446.625 1160.63 446.428 1152.55 438.343 1152.55 427.498ZM1185.87 427.301C1185.87 419.413 1180.15 412.709 1171.48 412.709 1162.8 412.709 1157.08 419.413 1157.08 427.301 1157.08 435.582 1162.8 442.287 1171.48 442.287 1180.15 442.287 1185.87 435.582 1185.87 427.301Z" fill="#FFFFFF" transform="matrix(1.00217 0 0 1 -134.761 -92.7788)"/><path d="M1229.25 445.836 1219.79 431.639 1209.53 431.639 1209.53 445.836 1205 445.836 1205 409.16 1222.15 409.16C1229.84 409.16 1233.99 415.075 1233.99 420.399 1233.99 425.329 1230.83 430.061 1225.11 431.244L1234.77 445.639 1229.25 445.639 1229.25 445.836 1229.25 445.836ZM1209.53 413.3 1209.53 427.498 1221.96 427.498C1226.69 427.498 1229.45 424.146 1229.45 420.399 1229.45 416.653 1226.69 413.3 1221.96 413.3L1209.53 413.3 1209.53 413.3Z" fill="#FFFFFF" transform="matrix(1.00217 0 0 1 -134.761 -92.7788)"/><path d="M645.387 470.484 649.726 470.484 649.726 507.161 645.19 507.161 645.19 478.372 631.979 497.104 618.767 478.372 618.767 507.161 614.232 507.161 614.232 470.484 618.57 470.484 631.979 489.808 645.387 470.484Z" fill="#FFFFFF" transform="matrix(1.00217 0 0 1 -134.761 -92.7788)"/><path d="M689.36 507.161 685.613 497.499 667.472 497.499 663.726 507.161 658.599 507.161 673.585 470.484 679.303 470.484 694.289 507.161 689.36 507.161ZM668.853 493.555 683.641 493.555 676.148 475.019 668.853 493.555Z" fill="#FFFFFF" transform="matrix(1.00217 0 0 1 -134.761 -92.7788)"/><path d="M697.444 488.822C697.444 477.977 705.726 469.893 716.374 469.893 725.247 469.893 731.557 475.019 733.727 481.132L729.191 482.315C727.417 477.78 722.881 474.231 716.374 474.231 707.698 474.231 701.98 480.935 701.98 488.822 701.98 496.907 707.698 503.611 716.374 503.611 722.684 503.611 727.417 500.062 729.191 495.724L733.529 496.907C731.36 503.02 725.05 507.949 716.374 507.949 705.726 507.752 697.444 499.668 697.444 488.822Z" fill="#FFFFFF" transform="matrix(1.00217 0 0 1 -134.761 -92.7788)"/><path d="M769.614 470.484 774.15 470.484 774.15 507.161 769.614 507.161 769.614 490.597 748.91 490.597 748.91 507.161 744.375 507.161 744.375 470.484 748.91 470.484 748.91 486.456 769.614 486.456 769.614 470.484Z" fill="#FFFFFF" transform="matrix(1.00217 0 0 1 -134.761 -92.7788)"/><path d="M790.319 507.161 790.319 470.484 794.854 470.484 794.854 507.161 790.319 507.161Z" fill="#FFFFFF" transform="matrix(1.00217 0 0 1 -134.761 -92.7788)"/><path d="M836.657 470.484 841.193 470.484 841.193 507.161 837.249 507.161 815.558 478.569 815.558 507.161 811.023 507.161 811.023 470.484 814.967 470.484 836.657 499.076 836.657 470.484Z" fill="#FFFFFF" transform="matrix(1.00217 0 0 1 -134.761 -92.7788)"/><path d="M883.39 474.625 861.897 474.625 861.897 486.456 880.63 486.456 880.63 490.4 861.897 490.4 861.897 502.823 883.39 502.823 883.39 506.963 857.559 506.963 857.559 470.287 883.39 470.287 883.39 474.625Z" fill="#FFFFFF" transform="matrix(1.00217 0 0 1 -134.761 -92.7788)"/><path d="M924.996 502.823 945.109 502.823 945.109 507.161 920.461 507.161 920.461 470.484 924.996 470.484 924.996 502.823Z" fill="#FFFFFF" transform="matrix(1.00217 0 0 1 -134.761 -92.7788)"/><path d="M984.743 474.625 963.25 474.625 963.25 486.456 981.983 486.456 981.983 490.4 963.25 490.4 963.25 502.823 984.743 502.823 984.743 506.963 958.912 506.963 958.912 470.287 984.941 470.287 984.941 474.625 984.743 474.625Z" fill="#FFFFFF" transform="matrix(1.00217 0 0 1 -134.761 -92.7788)"/><path d="M1027.14 507.161 1023.39 497.499 1005.25 497.499 1001.5 507.161 996.575 507.161 1011.56 470.484 1017.28 470.484 1032.27 507.161 1027.14 507.161ZM1006.83 493.555 1021.62 493.555 1014.12 475.019 1006.83 493.555Z" fill="#FFFFFF" transform="matrix(1.00217 0 0 1 -134.761 -92.7788)"/><path d="M1069.14 507.161 1059.67 492.963 1049.42 492.963 1049.42 507.161 1044.89 507.161 1044.89 470.484 1062.04 470.484C1069.73 470.484 1073.87 476.4 1073.87 481.724 1073.87 486.653 1070.72 491.386 1065 492.569L1074.66 506.963 1069.14 506.963 1069.14 507.161 1069.14 507.161ZM1049.42 474.625 1049.42 488.822 1061.84 488.822C1066.58 488.822 1069.34 485.47 1069.34 481.724 1069.34 477.977 1066.58 474.625 1061.84 474.625L1049.42 474.625 1049.42 474.625Z" fill="#FFFFFF" transform="matrix(1.00217 0 0 1 -134.761 -92.7788)"/><path d="M1114.49 470.484 1119.03 470.484 1119.03 507.161 1115.08 507.161 1093.39 478.569 1093.39 507.161 1088.86 507.161 1088.86 470.484 1092.8 470.484 1114.49 499.076 1114.49 470.484Z" fill="#FFFFFF" transform="matrix(1.00217 0 0 1 -134.761 -92.7788)"/><path d="M1135.2 507.161 1135.2 470.484 1139.73 470.484 1139.73 507.161 1135.2 507.161Z" fill="#FFFFFF" transform="matrix(1.00217 0 0 1 -134.761 -92.7788)"/><path d="M1181.53 470.484 1186.07 470.484 1186.07 507.161 1182.13 507.161 1160.44 478.569 1160.44 507.161 1155.9 507.161 1155.9 470.484 1159.84 470.484 1181.53 499.076 1181.53 470.484Z" fill="#FFFFFF" transform="matrix(1.00217 0 0 1 -134.761 -92.7788)"/><path d="M1234.58 490.005C1234.58 501.245 1226.69 507.752 1216.24 507.752 1205.2 507.752 1196.91 499.47 1196.91 488.625 1196.91 477.78 1205.2 469.695 1216.04 469.695 1224.52 469.695 1230.83 474.428 1233.39 480.541L1229.06 481.724C1227.08 477.188 1222.75 474.033 1216.24 474.033 1207.56 474.033 1201.84 480.738 1201.84 488.625 1201.84 496.71 1207.56 503.414 1216.63 503.414 1224.32 503.414 1229.65 498.682 1230.04 491.386L1216.04 491.386 1216.04 487.442 1234.58 487.442 1234.58 490.005 1234.58 490.005Z" fill="#FFFFFF" transform="matrix(1.00217 0 0 1 -134.761 -92.7788)"/><path d="M750.684 570.063 746.938 560.401 728.797 560.401 725.05 570.063 720.121 570.063 735.107 533.386 740.825 533.386 755.811 570.063 750.684 570.063ZM730.374 556.457 745.163 556.457 737.67 537.922 730.374 556.457Z" fill="#FFFFFF" transform="matrix(1.00217 0 0 1 -134.761 -92.7788)"/><path d="M794.065 533.386 798.6 533.386 798.6 570.063 794.657 570.063 772.966 541.471 772.966 570.063 768.431 570.063 768.431 533.386 772.375 533.386 794.065 561.978 794.065 533.386Z" fill="#FFFFFF" transform="matrix(1.00217 0 0 1 -134.761 -92.7788)"/><path d="M828.967 533.386C840.207 533.386 846.911 541.274 846.911 551.724 846.911 562.372 840.207 570.063 828.967 570.063L814.77 570.063 814.77 533.386 828.967 533.386 828.967 533.386ZM828.967 565.922C837.446 565.922 842.376 559.809 842.376 551.724 842.376 543.837 837.446 537.724 828.967 537.724L819.305 537.724 819.305 565.922 828.967 565.922Z" fill="#FFFFFF" transform="matrix(1.00217 0 0 1 -134.761 -92.7788)"/><path d="M910.602 570.063 906.855 560.401 888.714 560.401 884.968 570.063 880.038 570.063 895.024 533.386 900.742 533.386 915.729 570.063 910.602 570.063ZM890.292 556.457 905.081 556.457 897.588 537.922 890.292 556.457Z" fill="#FFFFFF" transform="matrix(1.00217 0 0 1 -134.761 -92.7788)"/><path d="M952.602 570.063 943.137 555.865 932.884 555.865 932.884 570.063 928.348 570.063 928.348 533.386 945.504 533.386C953.194 533.386 957.335 539.302 957.335 544.626 957.335 549.555 954.18 554.288 948.461 555.471L958.123 569.866 952.602 569.866 952.602 570.063 952.602 570.063ZM932.884 537.527 932.884 551.724 945.306 551.724C950.039 551.724 952.799 548.372 952.799 544.626 952.799 540.879 950.039 537.527 945.306 537.527L932.884 537.527Z" fill="#FFFFFF" transform="matrix(1.00217 0 0 1 -134.761 -92.7788)"/><path d="M1000.52 537.527 987.11 537.527 987.11 570.063 982.574 570.063 982.574 537.527 969.166 537.527 969.166 533.386 1000.52 533.386 1000.52 537.527 1000.52 537.527Z" fill="#FFFFFF" transform="matrix(1.00217 0 0 1 -134.761 -92.7788)"/><path d="M1013.53 570.063 1013.53 533.386 1018.07 533.386 1018.07 570.063 1013.53 570.063Z" fill="#FFFFFF" transform="matrix(1.00217 0 0 1 -134.761 -92.7788)"/><path d="M1061.84 537.527 1040.94 537.527 1040.94 549.95 1059.28 549.95 1059.28 554.091 1040.94 554.091 1040.94 570.063 1036.41 570.063 1036.41 533.386 1062.04 533.386 1062.04 537.527 1061.84 537.527Z" fill="#FFFFFF" transform="matrix(1.00217 0 0 1 -134.761 -92.7788)"/><path d="M1075.05 570.063 1075.05 533.386 1079.59 533.386 1079.59 570.063 1075.05 570.063Z" fill="#FFFFFF" transform="matrix(1.00217 0 0 1 -134.761 -92.7788)"/><path d="M1094.18 551.724C1094.18 540.879 1102.46 532.795 1113.11 532.795 1121.98 532.795 1128.29 537.922 1130.46 544.034L1125.93 545.217C1124.15 540.682 1119.62 537.133 1113.11 537.133 1104.43 537.133 1098.72 543.837 1098.72 551.724 1098.72 559.809 1104.43 566.513 1113.11 566.513 1119.42 566.513 1124.15 562.964 1125.93 558.626L1130.27 559.809C1128.1 565.922 1121.79 570.851 1113.11 570.851 1102.27 570.851 1094.18 562.57 1094.18 551.724Z" fill="#FFFFFF" transform="matrix(1.00217 0 0 1 -134.761 -92.7788)"/><path d="M1144.86 570.063 1144.86 533.386 1149.39 533.386 1149.39 570.063 1144.86 570.063Z" fill="#FFFFFF" transform="matrix(1.00217 0 0 1 -134.761 -92.7788)"/><path d="M1192.77 570.063 1189.03 560.401 1170.89 560.401 1167.14 570.063 1162.21 570.063 1177.2 533.386 1182.91 533.386 1197.9 570.063 1192.77 570.063ZM1172.46 556.457 1187.25 556.457 1179.76 537.922 1172.46 556.457Z" fill="#FFFFFF" transform="matrix(1.00217 0 0 1 -134.761 -92.7788)"/><path d="M1215.25 565.922 1235.37 565.922 1235.37 570.26 1210.72 570.26 1210.72 533.583 1215.25 533.583 1215.25 565.922Z" fill="#FFFFFF" transform="matrix(1.00217 0 0 1 -134.761 -92.7788)"/><path d="M772.375 632.965 772.375 596.288 776.91 596.288 776.91 632.965 772.375 632.965Z" fill="#FFFFFF" transform="matrix(1.00217 0 0 1 -134.761 -92.7788)"/><path d="M818.713 596.288 823.249 596.288 823.249 632.965 819.305 632.965 797.615 604.373 797.615 632.965 793.079 632.965 793.079 596.288 797.023 596.288 818.713 624.88 818.713 596.288Z" fill="#FFFFFF" transform="matrix(1.00217 0 0 1 -134.761 -92.7788)"/><path d="M867.812 600.626 854.404 600.626 854.404 632.965 849.869 632.965 849.869 600.429 836.46 600.429 836.46 596.288 867.812 596.288 867.812 600.626Z" fill="#FFFFFF" transform="matrix(1.00217 0 0 1 -134.761 -92.7788)"/><path d="M906.855 600.626 885.362 600.626 885.362 612.458 904.095 612.458 904.095 616.401 885.362 616.401 885.362 628.824 906.855 628.824 906.855 632.965 881.024 632.965 881.024 596.288 907.052 596.288 907.052 600.626 906.855 600.626Z" fill="#FFFFFF" transform="matrix(1.00217 0 0 1 -134.761 -92.7788)"/><path d="M926.574 628.824 946.489 628.824 946.489 633.162 921.841 633.162 921.841 596.486 926.377 596.486 926.377 628.824 926.574 628.824Z" fill="#FFFFFF" transform="matrix(1.00217 0 0 1 -134.761 -92.7788)"/><path d="M964.828 628.824 984.941 628.824 984.941 633.162 960.292 633.162 960.292 596.486 964.828 596.486 964.828 628.824Z" fill="#FFFFFF" transform="matrix(1.00217 0 0 1 -134.761 -92.7788)"/><path d="M1000.52 632.965 1000.52 596.288 1005.05 596.288 1005.05 632.965 1000.52 632.965Z" fill="#FFFFFF" transform="matrix(1.00217 0 0 1 -134.761 -92.7788)"/><path d="M1057.11 615.81C1057.11 627.049 1049.22 633.556 1038.77 633.556 1027.73 633.556 1019.45 625.275 1019.45 614.429 1019.45 603.584 1027.73 595.5 1038.57 595.5 1047.05 595.5 1053.36 600.232 1055.93 606.345L1051.59 607.528C1049.62 602.993 1045.28 599.838 1038.77 599.838 1030.1 599.838 1024.38 606.542 1024.38 614.429 1024.38 622.514 1030.1 629.218 1039.17 629.218 1046.86 629.218 1052.18 624.486 1052.58 617.19L1038.57 617.19 1038.57 613.246 1057.11 613.246 1057.11 615.81 1057.11 615.81Z" fill="#FFFFFF" transform="matrix(1.00217 0 0 1 -134.761 -92.7788)"/><path d="M1097.53 600.626 1076.04 600.626 1076.04 612.458 1094.77 612.458 1094.77 616.401 1076.04 616.401 1076.04 628.824 1097.53 628.824 1097.53 632.965 1071.7 632.965 1071.7 596.288 1097.73 596.288 1097.73 600.626 1097.53 600.626Z" fill="#FFFFFF" transform="matrix(1.00217 0 0 1 -134.761 -92.7788)"/><path d="M1138.15 596.288 1142.69 596.288 1142.69 632.965 1138.75 632.965 1117.05 604.373 1117.05 632.965 1112.52 632.965 1112.52 596.288 1116.46 596.288 1138.15 624.88 1138.15 596.288Z" fill="#FFFFFF" transform="matrix(1.00217 0 0 1 -134.761 -92.7788)"/><path d="M1157.28 614.627C1157.28 603.781 1165.56 595.697 1176.21 595.697 1185.08 595.697 1191.39 600.824 1193.56 606.936L1189.03 608.119C1187.25 603.584 1182.72 600.035 1176.21 600.035 1167.53 600.035 1161.82 606.739 1161.82 614.627 1161.82 622.711 1167.53 629.416 1176.21 629.416 1182.52 629.416 1187.25 625.866 1189.03 621.528L1193.37 622.711C1191.2 628.824 1184.89 633.754 1176.21 633.754 1165.37 633.754 1157.28 625.472 1157.28 614.627Z" fill="#FFFFFF" transform="matrix(1.00217 0 0 1 -134.761 -92.7788)"/><path d="M1233.99 600.626 1212.49 600.626 1212.49 612.458 1231.23 612.458 1231.23 616.401 1212.49 616.401 1212.49 628.824 1233.99 628.824 1233.99 632.965 1208.15 632.965 1208.15 596.288 1234.18 596.288 1234.18 600.626 1233.99 600.626Z" fill="#FFFFFF" transform="matrix(1.00217 0 0 1 -134.761 -92.7788)"/><path d="M298.933 490.991 408.962 409.357 298.933 327.722Z" fill="#59BDF7" transform="matrix(1.00217 0 0 1 -134.761 -92.7788)"/><path d="M298.933 654.064 408.962 572.429 298.933 490.991Z" fill="#E82E82" transform="matrix(1.00217 0 0 1 -134.761 -92.7788)"/><path d="M408.962 572.429 518.992 490.991 408.962 409.357Z" fill="#009EE3" transform="matrix(1.00217 0 0 1 -134.761 -92.7788)"/><path d="M188.904 409.357 298.933 490.991 298.933 327.722Z" fill="#009EE3" transform="matrix(1.00217 0 0 1 -134.761 -92.7788)"/><path d="M188.904 409.357 298.933 327.722 188.904 246.284Z" fill="#E82E82" transform="matrix(1.00217 0 0 1 -134.761 -92.7788)"/><path d="M188.904 246.284 298.933 327.722 298.933 164.65Z" fill="#983082" transform="matrix(1.00217 0 0 1 -134.761 -92.7788)"/><path d="M188.904 572.429 298.933 654.064 298.933 490.991Z" fill="#009EE3" transform="matrix(1.00217 0 0 1 -134.761 -92.7788)"/><path d="M522.738 294.989 512.485 323.581 409.948 323.581 409.948 166.03 439.329 166.03 439.329 294.989Z" fill="#FFFFFF" transform="matrix(1.00217 0 0 1 -134.761 -92.7788)"/><path d="M625.472 166.03 587.415 166.03 529.443 323.581 559.809 323.581 572.232 288.482 640.458 288.482 652.881 323.581 683.05 323.581 625.472 166.03ZM582.091 261.862 606.542 195.016 630.993 261.862 582.091 261.862Z" fill="#FFFFFF" transform="matrix(1.00217 0 0 1 -134.761 -92.7788)"/><path d="M832.516 166.03 861.7 166.03 861.7 323.581 830.939 323.581 830.939 218.876 780.262 288.285 729.586 218.876 729.586 323.581 698.825 323.581 698.825 166.03 728.008 166.03 780.262 240.763 832.516 166.03Z" fill="#FFFFFF" transform="matrix(1.00217 0 0 1 -134.761 -92.7788)"/><path d="M1146.44 323.581 1111.34 267.58 1079 267.58 1079 323.581 1050.01 323.581 1050.01 166.03 1123.56 166.03C1156.29 166.03 1175.03 192.256 1175.03 217.101 1175.03 237.411 1163.39 257.13 1141.9 264.623L1179.56 323.778 1146.44 323.581 1146.44 323.581ZM1079 193.044 1079 240.96 1121.79 240.96C1137.17 240.96 1146.83 229.918 1146.83 217.101 1146.83 204.284 1136.97 193.242 1122.97 193.242L1079 193.044 1079 193.044Z" fill="#FFFFFF" transform="matrix(1.00217 0 0 1 -134.761 -92.7788)"/><path d="M1299.25 323.581 1265.34 267.58 1233 267.58 1233 323.581 1204.01 323.581 1204.01 166.03 1277.56 166.03C1310.3 166.03 1329.03 192.256 1329.03 217.101 1329.03 237.411 1317.39 257.13 1295.9 264.623L1334.55 323.778 1299.25 323.581ZM1233 193.044 1233 240.96 1275.79 240.96C1291.17 240.96 1300.83 229.918 1300.83 217.101 1300.83 204.284 1290.97 193.242 1276.97 193.242L1233 193.044 1233 193.044Z" fill="#FFFFFF" transform="matrix(1.00217 0 0 1 -134.761 -92.7788)"/><path d="M972.518 166.03 934.461 166.03 876.489 323.581 906.855 323.581 919.278 288.482 987.504 288.482 999.927 323.581 1030.1 323.581 972.518 166.03ZM929.137 261.862 953.588 195.016 978.039 261.862 929.137 261.862Z" fill="#FFFFFF" transform="matrix(1.00217 0 0 1 -134.761 -92.7788)"/></g></svg>