<?xml version="1.0" encoding="UTF-8"?>
<svg id="farbig" xmlns="http://www.w3.org/2000/svg" viewBox="0 0 91.39 76.28">
  <defs>
    <style>
      .cls-1 {
        fill: #1d3f51;
      }

      .cls-1, .cls-2, .cls-3 {
        stroke-width: 0px;
      }

      .cls-2 {
        fill: #065b7f;
      }

      .cls-3 {
        fill: #a4bac8;
      }
    </style>
  </defs>
  <polygon class="cls-2" points="15 48.62 15 47.43 15 26.93 19.05 26.93 19.05 22.88 11.89 22.88 10.95 23.81 10.95 47.43 10.95 51.74 11.89 52.67 19.05 52.67 19.05 48.62 15 48.62"/>
  <polygon class="cls-2" points="75.99 26.93 75.99 28.13 75.99 48.62 71.94 48.62 71.94 52.67 79.11 52.67 80.04 51.74 80.04 28.13 80.04 23.82 79.11 22.88 71.94 22.88 71.94 26.93 75.99 26.93"/>
  <polygon class="cls-2" points="27.16 14.79 28.35 14.79 63.84 14.79 63.84 18.83 67.89 18.83 67.89 11.67 66.95 10.73 28.35 10.73 24.04 10.73 23.11 11.67 23.11 18.83 27.16 18.83 27.16 14.79"/>
  <polygon class="cls-2" points="63.83 60.76 62.64 60.76 27.15 60.76 27.15 56.72 23.1 56.72 23.1 63.88 24.04 64.82 62.64 64.82 66.95 64.82 67.88 63.88 67.88 56.72 63.83 56.72 63.83 60.76"/>
  <polygon class="cls-3" points="75.98 59.58 75.98 60.77 71.94 60.77 71.94 64.82 79.1 64.82 80.04 63.89 80.04 59.58 80.04 56.73 75.98 56.73 75.98 59.58"/>
  <polygon class="cls-3" points="74.79 14.78 75.98 14.78 75.98 18.82 80.04 18.82 80.04 11.67 79.1 10.73 74.79 10.73 71.94 10.73 71.94 14.78 74.79 14.78"/>
  <polygon class="cls-3" points="15 15.98 15 14.78 19.04 14.78 19.04 10.73 11.88 10.73 10.95 11.67 10.95 15.98 10.95 18.82 15 18.82 15 15.98"/>
  <polygon class="cls-3" points="16.19 60.77 15 60.77 15 56.73 10.95 56.73 10.95 63.89 11.88 64.82 16.19 64.82 19.04 64.82 19.04 60.77 16.19 60.77"/>
  <path class="cls-1" d="M63.84,26.93v21.69H27.15v-21.69h36.68M66.95,22.88H24.04l-.94.94v27.92l.94.94h42.91l.94-.94v-27.92l-.94-.94h0Z"/>
</svg>