<?xml version="1.0" encoding="UTF-8"?>
<svg id="weiss" xmlns="http://www.w3.org/2000/svg" version="1.1" viewBox="0 0 201.69 76.28">
  <!-- Generator: Adobe Illustrator 29.4.0, SVG Export Plug-In . SVG Version: 2.1.0 Build 152)  -->
  <defs>
    <style>
      .st0 {
        fill: #065b7f;
      }

      .st1 {
        fill: #1d3f51;
      }

      .st2 {
        fill: #a4bac8;
      }
    </style>
  </defs>
  <polygon class="st0" points="14.86 48.62 14.86 47.43 14.86 26.93 18.9 26.93 18.9 22.88 11.74 22.88 10.8 23.81 10.8 47.43 10.8 51.74 11.74 52.67 18.9 52.67 18.9 48.62 14.86 48.62"/>
  <polygon class="st0" points="75.84 26.93 75.84 28.13 75.84 48.62 71.8 48.62 71.8 52.67 78.96 52.67 79.9 51.74 79.9 28.13 79.9 23.82 78.96 22.88 71.8 22.88 71.8 26.93 75.84 26.93"/>
  <polygon class="st0" points="27.01 14.79 28.21 14.79 63.69 14.79 63.69 18.83 67.74 18.83 67.74 11.67 66.81 10.73 28.21 10.73 23.9 10.73 22.96 11.67 22.96 18.83 27.01 18.83 27.01 14.79"/>
  <polygon class="st0" points="63.69 60.76 62.49 60.76 27.01 60.76 27.01 56.72 22.96 56.72 22.96 63.88 23.89 64.82 62.49 64.82 66.8 64.82 67.74 63.88 67.74 56.72 63.69 56.72 63.69 60.76"/>
  <polygon class="st2" points="75.84 59.58 75.84 60.77 71.8 60.77 71.8 64.82 78.96 64.82 79.89 63.89 79.89 59.58 79.89 56.73 75.84 56.73 75.84 59.58"/>
  <polygon class="st2" points="74.65 14.78 75.84 14.78 75.84 18.82 79.89 18.82 79.89 11.67 78.96 10.73 74.65 10.73 71.8 10.73 71.8 14.78 74.65 14.78"/>
  <polygon class="st2" points="14.86 15.98 14.86 14.78 18.9 14.78 18.9 10.73 11.74 10.73 10.8 11.67 10.8 15.98 10.8 18.82 14.86 18.82 14.86 15.98"/>
  <polygon class="st2" points="16.05 60.77 14.86 60.77 14.86 56.73 10.8 56.73 10.8 63.89 11.74 64.82 16.05 64.82 18.9 64.82 18.9 60.77 16.05 60.77"/>
  <path class="st1" d="M63.69,26.93v21.69H27.01v-21.69h36.68M66.81,22.88H23.89l-.94.94v27.92l.94.94h42.91l.94-.94v-27.92l-.94-.94h0Z"/>
  <g>
    <path d="M117.18,18.23c0,4.89-3.76,7.62-9.42,7.62h-11.75v8.05h-3.99V10.61h15.74c5.66,0,9.42,2.76,9.42,7.62ZM113.09,18.26c0-3-2.23-4.16-5.66-4.16h-11.42v8.32h11.42c3.43,0,5.66-1.2,5.66-4.16Z"/>
    <path d="M138.39,28.28h-14.94l-2.96,5.62h-4.33l12.61-23.3h4.39l12.58,23.3h-4.36l-3-5.62ZM136.62,24.88l-5.69-10.78-5.69,10.78h11.38Z"/>
    <path d="M170.74,30.38v3.53h-21.17V10.61h3.99v19.77h17.17Z"/>
    <path d="M102.34,41.02c5.46,0,11.02,2.36,11.02,7.06,0,3.99-3.83,6.06-9.25,7.85-4.79,1.66-8.39,3.49-9.18,5.73h18.97v3.33h-23.93v-1.83c.73-4.16,5.03-7.75,11.88-10.12,4.29-1.5,7.46-2.6,7.46-4.89,0-2.6-3.53-3.83-7.09-3.83-3.76,0-6.72,1.53-9.02,4.46l-2.63-2.06c2.06-3.23,6.42-5.69,11.78-5.69Z"/>
    <path class="st0" d="M144.3,58.09c0,4.43-4.49,7.59-12.65,7.59-5.62,0-10.59-1.6-14.33-4.73l2.57-2.83c3.26,2.83,7.09,4.09,11.93,4.09,5.35,0,8.29-1.36,8.29-3.79s-3.02-3.03-9.05-3.53c-6.61-.53-12.85-1.96-12.85-6.72s5.52-7.19,12.41-7.19c5.21,0,9.63,1.5,12.51,3.86l-2.61,2.73c-2.47-2.1-5.86-3.09-9.84-3.13-3.8-.03-8.33.87-8.33,3.46s4.01,2.9,9.25,3.3c7.47.56,12.68,2.03,12.68,6.89Z"/>
    <path class="st0" d="M149.54,64.98v-23.3h3.99v23.3h-3.99Z"/>
    <path class="st0" d="M191.08,41.68v23.3h-3.99v-17.87l-11.08,13.44h-.23l-11.08-13.44v17.87h-3.86v-23.3h4.33l10.82,13.35,10.82-13.35h4.29Z"/>
  </g>
</svg>